#N canvas 20 20 1100 1100 12;

#X obj 50 30 r radio_on;
#X obj 50 80 sel 0 1;
#X msg 150 60 stop;
#X msg 250 60 0 200;
#X obj 200 100 t b b;
#X msg 300 60 0;
#X obj 50 140 metro 400;
#X obj 50 190 f 0;
#X obj 50 240 t f b f;
#X obj 200 240 + 1;
#X obj 200 290 mod 8;
#X obj 200 340 sel 0 1 2 3 4 5 6 7;
#X msg 200 390 65;
#X msg 270 390 130;
#X msg 340 390 98;
#X msg 410 390 196;
#X msg 480 390 110;
#X msg 550 390 82;
#X msg 620 390 87;
#X msg 690 390 98;
#X obj 400 440 s bass_freq;
#X obj 200 490 s bass_trig;
#X obj 50 530 r bass_freq;
#X obj 50 570 sig~;
#X obj 50 610 osc~;
#X obj 50 650 *~ 80;
#X obj 200 530 r bass_freq;
#X obj 200 570 * 2;
#X obj 200 610 sig~;
#X obj 200 650 +~;
#X obj 200 690 osc~;
#X obj 200 730 *~;
#X obj 50 490 r bass_trig;
#X obj 50 770 t b b;
#X msg 50 810 1 10;
#X obj 150 810 delay 250;
#X msg 150 850 0 150;
#X obj 100 890 line~;
#X obj 550 50 r dist_norm;
#X obj 550 90 * -1;
#X obj 550 130 + 1;
#X obj 200 810 lop~ 2000;
#X obj 200 850 *~;
#X obj 50 950 metro 240;
#X obj 50 1000 f 0;
#X obj 50 1050 t f b f;
#X obj 200 1050 + 1;
#X obj 200 1100 mod 16;
#X obj 200 1150 sel 0 1 2 3 4 5 6 7 8 9 10 11 12 13 14 15;
#X msg 50 1200 523;
#X msg 120 1200 587;
#X msg 190 1200 659;
#X msg 260 1200 523;
#X msg 330 1200 784;
#X msg 400 1200 659;
#X msg 470 1200 0;
#X msg 540 1200 784;
#X msg 610 1200 880;
#X msg 680 1200 784;
#X msg 750 1200 659;
#X msg 820 1200 587;
#X msg 890 1200 523;
#X msg 960 1200 659;
#X msg 1030 1200 0;
#X msg 1100 1200 784;
#X obj 600 1250 s melody_freq;
#X msg 50 1300 0.8;
#X msg 120 1300 0.6;
#X msg 190 1300 0.7;
#X msg 260 1300 0.9;
#X msg 330 1300 0.5;
#X msg 400 1300 0.6;
#X msg 470 1300 0;
#X msg 540 1300 0.7;
#X msg 610 1300 0.8;
#X msg 680 1300 0.6;
#X msg 750 1300 0.5;
#X msg 820 1300 0.6;
#X msg 890 1300 0.9;
#X msg 960 1300 0.5;
#X msg 1030 1300 0;
#X msg 1100 1300 0.7;
#X obj 600 1350 s melody_vel;
#X obj 200 1020 s melody_trig;
#X obj 50 1400 sel 0 1 2 3 4 5 6 7 8 9 10 11 12 13 14 15;
#X obj 50 1500 r melody_freq;
#X obj 50 1540 sig~;
#X obj 50 1580 osc~;
#X obj 50 1620 *~ 60;
#X obj 200 1540 r melody_freq;
#X obj 200 1580 sig~;
#X obj 200 1620 +~;
#X obj 200 1660 osc~;
#X obj 200 1700 *~;
#X obj 50 1450 r melody_vel;
#X obj 50 1740 line~ 20;
#X obj 200 1740 *~;
#X obj 50 1780 r melody_trig;
#X obj 50 1820 t b b;
#X msg 50 1860 1 10;
#X obj 150 1860 delay 200;
#X msg 150 1900 0 150;
#X obj 100 1940 line~;
#X obj 200 1980 lop~ 6000;
#X obj 200 2020 *~;
#X obj 550 250 sig~ 130.8;
#X obj 550 290 osc~;
#X obj 550 330 *~ 0.04;
#X obj 650 250 sig~ 164.8;
#X obj 650 290 osc~;
#X obj 650 330 *~ 0.04;
#X obj 750 250 sig~ 196.0;
#X obj 750 290 osc~;
#X obj 750 330 *~ 0.03;
#X obj 600 380 +~;
#X obj 600 420 +~;
#X obj 550 380 r radio_on;
#X obj 550 420 sig~;
#X obj 600 460 *~;
#X obj 600 520 noise~;
#X obj 600 560 lop~ 400;
#X obj 600 600 *~ 0.03;
#X obj 300 700 *~ 0.7;
#X obj 400 700 +~;
#X obj 400 740 +~;
#X obj 400 780 +~;
#X obj 400 830 *~ 0.3;
#X obj 400 880 r master_vol;
#X obj 400 920 sig~;
#X obj 400 960 *~;
#X obj 400 1010 dac~ 1 2;

#X connect 0 0 1 0;
#X connect 1 0 2 0;
#X connect 1 0 3 0;
#X connect 1 1 4 0;
#X connect 4 0 6 0;
#X connect 4 0 43 0;
#X connect 4 1 5 0;
#X connect 5 0 7 1;
#X connect 5 0 44 1;
#X connect 2 0 6 0;
#X connect 2 0 43 0;
#X connect 6 0 7 0;
#X connect 7 0 8 0;
#X connect 8 2 10 0;
#X connect 8 0 9 0;
#X connect 8 1 21 0;
#X connect 9 0 7 1;
#X connect 10 0 11 0;
#X connect 11 0 12 0;
#X connect 12 0 20 0;
#X connect 11 1 13 0;
#X connect 13 0 20 0;
#X connect 11 2 14 0;
#X connect 14 0 20 0;
#X connect 11 3 15 0;
#X connect 15 0 20 0;
#X connect 11 4 16 0;
#X connect 16 0 20 0;
#X connect 11 5 17 0;
#X connect 17 0 20 0;
#X connect 11 6 18 0;
#X connect 18 0 20 0;
#X connect 11 7 19 0;
#X connect 19 0 20 0;
#X connect 22 0 23 0;
#X connect 23 0 24 0;
#X connect 24 0 25 0;
#X connect 25 0 29 1;
#X connect 26 0 27 0;
#X connect 27 0 28 0;
#X connect 28 0 29 0;
#X connect 29 0 30 0;
#X connect 30 0 31 0;
#X connect 32 0 33 0;
#X connect 33 1 34 0;
#X connect 33 0 35 0;
#X connect 35 0 36 0;
#X connect 34 0 37 0;
#X connect 36 0 37 0;
#X connect 37 0 31 1;
#X connect 3 0 37 0;
#X connect 38 0 39 0;
#X connect 39 0 40 0;
#X connect 31 0 41 0;
#X connect 41 0 42 0;
#X connect 40 0 42 1;
#X connect 43 0 44 0;
#X connect 44 0 45 0;
#X connect 45 2 47 0;
#X connect 45 0 46 0;
#X connect 45 1 83 0;
#X connect 46 0 44 1;
#X connect 47 0 48 0;
#X connect 48 0 49 0;
#X connect 49 0 65 0;
#X connect 48 1 50 0;
#X connect 50 0 65 0;
#X connect 48 2 51 0;
#X connect 51 0 65 0;
#X connect 48 3 52 0;
#X connect 52 0 65 0;
#X connect 48 4 53 0;
#X connect 53 0 65 0;
#X connect 48 5 54 0;
#X connect 54 0 65 0;
#X connect 48 6 55 0;
#X connect 55 0 65 0;
#X connect 48 7 56 0;
#X connect 56 0 65 0;
#X connect 48 8 57 0;
#X connect 57 0 65 0;
#X connect 48 9 58 0;
#X connect 58 0 65 0;
#X connect 48 10 59 0;
#X connect 59 0 65 0;
#X connect 48 11 60 0;
#X connect 60 0 65 0;
#X connect 48 12 61 0;
#X connect 61 0 65 0;
#X connect 48 13 62 0;
#X connect 62 0 65 0;
#X connect 48 14 63 0;
#X connect 63 0 65 0;
#X connect 48 15 64 0;
#X connect 64 0 65 0;
#X connect 47 0 84 0;
#X connect 84 0 66 0;
#X connect 66 0 82 0;
#X connect 84 1 67 0;
#X connect 67 0 82 0;
#X connect 84 2 68 0;
#X connect 68 0 82 0;
#X connect 84 3 69 0;
#X connect 69 0 82 0;
#X connect 84 4 70 0;
#X connect 70 0 82 0;
#X connect 84 5 71 0;
#X connect 71 0 82 0;
#X connect 84 6 72 0;
#X connect 72 0 82 0;
#X connect 84 7 73 0;
#X connect 73 0 82 0;
#X connect 84 8 74 0;
#X connect 74 0 82 0;
#X connect 84 9 75 0;
#X connect 75 0 82 0;
#X connect 84 10 76 0;
#X connect 76 0 82 0;
#X connect 84 11 77 0;
#X connect 77 0 82 0;
#X connect 84 12 78 0;
#X connect 78 0 82 0;
#X connect 84 13 79 0;
#X connect 79 0 82 0;
#X connect 84 14 80 0;
#X connect 80 0 82 0;
#X connect 84 15 81 0;
#X connect 81 0 82 0;
#X connect 85 0 86 0;
#X connect 86 0 87 0;
#X connect 87 0 88 0;
#X connect 88 0 91 1;
#X connect 89 0 90 0;
#X connect 90 0 91 0;
#X connect 91 0 92 0;
#X connect 92 0 93 0;
#X connect 94 0 95 0;
#X connect 93 0 96 0;
#X connect 95 0 96 1;
#X connect 97 0 98 0;
#X connect 98 1 99 0;
#X connect 98 0 100 0;
#X connect 100 0 101 0;
#X connect 99 0 102 0;
#X connect 101 0 102 0;
#X connect 102 0 93 1;
#X connect 96 0 103 0;
#X connect 103 0 104 0;
#X connect 40 0 104 1;
#X connect 105 0 106 0;
#X connect 106 0 107 0;
#X connect 108 0 109 0;
#X connect 109 0 110 0;
#X connect 111 0 112 0;
#X connect 112 0 113 0;
#X connect 107 0 114 0;
#X connect 110 0 114 1;
#X connect 114 0 115 0;
#X connect 113 0 115 1;
#X connect 116 0 117 0;
#X connect 115 0 118 0;
#X connect 117 0 118 1;
#X connect 119 0 120 0;
#X connect 120 0 121 0;
#X connect 42 0 122 0;
#X connect 122 0 123 0;
#X connect 104 0 123 1;
#X connect 123 0 124 0;
#X connect 118 0 124 1;
#X connect 124 0 125 0;
#X connect 121 0 125 1;
#X connect 125 0 126 0;
#X connect 126 0 129 0;
#X connect 127 0 128 0;
#X connect 128 0 129 1;
#X connect 129 0 130 0;
#X connect 129 0 130 1;