#N canvas 0 0 1600 1550 12;

#X obj 20 20 sig~ 130.8;
#X obj 20 50 osc~;
#X obj 20 80 *~ 0.15;
#X obj 20 110 sig~ 132.8;
#X obj 20 140 osc~;
#X obj 20 170 *~ 0.15;
#X obj 20 210 +~;
#X obj 180 20 sig~ 164.8;
#X obj 180 50 osc~;
#X obj 180 80 *~ 0.12;
#X obj 180 110 sig~ 166.8;
#X obj 180 140 osc~;
#X obj 180 170 *~ 0.12;
#X obj 180 210 +~;
#X obj 340 20 sig~ 196;
#X obj 340 50 osc~;
#X obj 340 80 *~ 0.1;
#X obj 340 110 sig~ 198;
#X obj 340 140 osc~;
#X obj 340 170 *~ 0.1;
#X obj 340 210 +~;
#X obj 500 20 sig~ 261.6;
#X obj 500 50 osc~;
#X obj 500 80 *~ 0.1;
#X obj 500 110 sig~ 263.6;
#X obj 500 140 osc~;
#X obj 500 170 *~ 0.1;
#X obj 500 210 +~;
#X obj 660 20 sig~ 329.6;
#X obj 660 50 osc~;
#X obj 660 80 *~ 0.08;
#X obj 660 110 sig~ 331.6;
#X obj 660 140 osc~;
#X obj 660 170 *~ 0.08;
#X obj 660 210 +~;
#X obj 20 250 osc~ 0.18;
#X obj 20 280 *~ 0.1;
#X obj 20 310 +~ 0.9;
#X obj 20 350 *~;
#X obj 20 400 +~;
#X obj 20 440 +~;
#X obj 20 480 +~;
#X obj 20 520 +~;
#X obj 850 20 sel 0 1 2 3 4 5 6 7 8 9 10 11;
#X obj 850 70 metro 280;
#X obj 850 120 f 0;
#X obj 850 170 t f b f;
#X obj 980 170 + 1;
#X obj 980 220 mod 12;
#X obj 850 280 s tv_melody_freq;
#X obj 850 330 s tv_melody_trig;
#X msg 850 600 329.6;
#X msg 910 600 440;
#X msg 970 600 493.9;
#X msg 1030 600 523;
#X msg 1090 600 587;
#X msg 1150 600 659;
#X msg 1210 600 0;
#X msg 1270 600 784;
#X msg 1330 600 659;
#X msg 1390 600 523;
#X msg 1450 600 440;
#X msg 1510 600 329.6;
#X obj 850 380 t b b;
#X obj 850 430 r tv_on;
#X obj 850 480 sel 0 1;
#X msg 980 430 0;
#X obj 850 540 r tv_melody_freq;
#X obj 850 580 sig~;
#X obj 850 620 osc~;
#X obj 850 660 *~ 60;
#X obj 980 580 r tv_melody_freq;
#X obj 980 620 sig~;
#X obj 980 660 +~;
#X obj 980 700 osc~;
#X obj 980 740 *~;
#X obj 850 800 r tv_melody_trig;
#X obj 850 840 t b b;
#X msg 850 880 1 10;
#X obj 950 880 delay 220;
#X msg 950 920 0 150;
#X obj 900 960 line~;
#X obj 850 1020 lop~ 5000;
#X obj 850 1060 *~ 0.8;
#X obj 500 350 noise~;
#X obj 500 390 lop~ 600;
#X obj 500 430 *~ 0.04;
#X obj 500 1100 +~;
#X obj 500 1140 +~;
#X obj 500 1200 *~ 0.5;
#X obj 500 1250 r master_vol;
#X obj 500 1290 sig~;
#X obj 500 1330 *~;
#X obj 700 1250 r tv_on;
#X obj 700 1290 sig~;
#X obj 500 1380 *~;
#X obj 900 1250 r tv_dist_norm;
#X obj 900 1290 * -1;
#X obj 900 1330 + 1;
#X obj 900 1370 sig~;
#X obj 500 1430 *~;
#X obj 500 1480 dac~ 1 2;

#X connect 0 0 1 0;
#X connect 1 0 2 0;
#X connect 3 0 4 0;
#X connect 4 0 5 0;
#X connect 2 0 6 0;
#X connect 5 0 6 1;
#X connect 7 0 8 0;
#X connect 8 0 9 0;
#X connect 10 0 11 0;
#X connect 11 0 12 0;
#X connect 9 0 13 0;
#X connect 12 0 13 1;
#X connect 14 0 15 0;
#X connect 15 0 16 0;
#X connect 17 0 18 0;
#X connect 18 0 19 0;
#X connect 16 0 20 0;
#X connect 19 0 20 1;
#X connect 21 0 22 0;
#X connect 22 0 23 0;
#X connect 24 0 25 0;
#X connect 25 0 26 0;
#X connect 23 0 27 0;
#X connect 26 0 27 1;
#X connect 28 0 29 0;
#X connect 29 0 30 0;
#X connect 31 0 32 0;
#X connect 32 0 33 0;
#X connect 30 0 34 0;
#X connect 33 0 34 1;
#X connect 35 0 36 0;
#X connect 36 0 37 0;
#X connect 37 0 38 1;
#X connect 6 0 39 0;
#X connect 13 0 39 1;
#X connect 39 0 40 0;
#X connect 20 0 40 1;
#X connect 40 0 41 0;
#X connect 27 0 41 1;
#X connect 41 0 42 0;
#X connect 34 0 42 1;
#X connect 42 0 38 0;
#X connect 44 0 45 0;
#X connect 45 0 46 0;
#X connect 46 2 48 0;
#X connect 46 0 47 0;
#X connect 46 1 50 0;
#X connect 47 0 45 1;
#X connect 48 0 43 0;
#X connect 43 0 51 0;
#X connect 51 0 49 0;
#X connect 43 1 52 0;
#X connect 52 0 49 0;
#X connect 43 2 53 0;
#X connect 53 0 49 0;
#X connect 43 3 54 0;
#X connect 54 0 49 0;
#X connect 43 4 55 0;
#X connect 55 0 49 0;
#X connect 43 5 56 0;
#X connect 56 0 49 0;
#X connect 43 6 57 0;
#X connect 57 0 49 0;
#X connect 43 7 58 0;
#X connect 58 0 49 0;
#X connect 43 8 59 0;
#X connect 59 0 49 0;
#X connect 43 9 60 0;
#X connect 60 0 49 0;
#X connect 43 10 61 0;
#X connect 61 0 49 0;
#X connect 43 11 62 0;
#X connect 62 0 49 0;
#X connect 64 0 65 0;
#X connect 65 0 44 0;
#X connect 65 0 66 0;
#X connect 65 1 63 0;
#X connect 63 0 44 0;
#X connect 63 1 66 0;
#X connect 66 0 45 1;
#X connect 67 0 68 0;
#X connect 68 0 69 0;
#X connect 69 0 70 0;
#X connect 70 0 73 1;
#X connect 71 0 72 0;
#X connect 72 0 73 0;
#X connect 73 0 74 0;
#X connect 74 0 75 0;
#X connect 76 0 77 0;
#X connect 77 1 78 0;
#X connect 77 0 79 0;
#X connect 79 0 80 0;
#X connect 78 0 81 0;
#X connect 80 0 81 0;
#X connect 81 0 75 1;
#X connect 75 0 82 0;
#X connect 82 0 83 0;
#X connect 84 0 85 0;
#X connect 85 0 86 0;
#X connect 38 0 87 0;
#X connect 83 0 87 1;
#X connect 87 0 88 0;
#X connect 86 0 88 1;
#X connect 88 0 89 0;
#X connect 89 0 92 0;
#X connect 90 0 91 0;
#X connect 91 0 92 1;
#X connect 92 0 95 0;
#X connect 93 0 94 0;
#X connect 94 0 95 1;
#X connect 95 0 100 0;
#X connect 96 0 97 0;
#X connect 97 0 98 0;
#X connect 98 0 99 0;
#X connect 99 0 100 1;
#X connect 100 0 101 0;
#X connect 100 0 101 1;